<svg xmlns="http://www.w3.org/2000/svg" xmlns:xlink="http://www.w3.org/1999/xlink" version="1.1" style="enable-background:new 0 0 841.89 595.28;" xml:space="preserve" width="602.6580393321465" height="184.6373198936085"><rect id="backgroundrect" width="100%" height="100%" x="0" y="0" fill="none" stroke="none"/>
<style type="text/css">
	.st0{fill:#FFFF00;stroke:#FFBF00;stroke-width:2.85;stroke-miterlimit:10;}
	.st1{fill:#FFB300;stroke:#FF6600;stroke-width:2.85;stroke-miterlimit:10;}
	.st2{fill:#0670B0;stroke:#0F218B;stroke-width:2.85;stroke-miterlimit:10;}
	.st3{fill:#FF0000;stroke:#A30000;stroke-width:2.85;stroke-miterlimit:10;}
	.st4{fill:#CC5812;stroke:#7A3502;stroke-width:1.8034;stroke-miterlimit:10;}
	.st5{fill:#FFFFFF;}
	.st6{fill:#FF0000;}
	.st7{fill:#FFFFFF;stroke:#8F3E03;stroke-width:1.1508;stroke-miterlimit:10;}
	.st8{stroke:#000000;stroke-width:0;stroke-miterlimit:10;}
	.st9{fill:#FF0000;stroke:#990000;stroke-width:1.8034;stroke-miterlimit:10;}
	.st10{fill:#118E34;stroke:#0E722A;stroke-width:2.85;stroke-miterlimit:10;}
	.st11{fill:#82027E;stroke:#5B0158;stroke-width:2.85;stroke-miterlimit:10;}
	.st12{fill:#FF0000;stroke:#CC0000;stroke-width:2.85;stroke-miterlimit:10;}
	.st13{fill:#8C8C8C;}
</style>
<g class="currentLayer" style=""><title>Layer 1</title><g id="signature">
</g><g id="Logo" class="">
	<g id="svg_1">
		<g id="svg_2">
			<path class="st0" d="M246.46342285156248,116.98648498535158 c0,0 -19.62,-0.010000000000000002 -19.62,-0.010000000000000002 c-0.54,0 -0.9400000000000001,-0.010000000000000002 -1.1600000000000001,-0.23 c-0.16000000000000003,-0.16000000000000003 -0.42000000000000004,-0.6000000000000001 -0.42000000000000004,-1.78 v-57.29 c0,-2.3 0.8500000000000001,-2.74 2.31,-2.74 h19.94 l0.39000000000000007,-0.010000000000000002 c0.6100000000000001,-0.020000000000000004 1,-0.010000000000000002 1.25,0.22000000000000003 c0.22000000000000003,0.2 0.5800000000000001,0.81 0.6000000000000001,2.55 c0.04000000000000001,3.52 0.020000000000000004,35.34 0,48.93 v8.33 c0,0 0.14,1.9 -0.7300000000000001,1.9 L246.46342285156248,116.98648498535158 z" id="svg_3"/>
			<path class="st0" d="M250.36342285156252,37.42648498535158 c0,-7.21 -5.86,-13.07 -13.07,-13.07 c-7.21,0 -13.07,5.86 -13.07,13.07 c0,7.21 5.86,13.07 13.07,13.07 C244.5034228515625,50.49648498535157 250.36342285156252,44.63648498535156 250.36342285156252,37.42648498535158 z" id="svg_4"/>
		</g>
		<path class="st1" d="M158.9434228515625,114.81648498535156 l0.010000000000000002,-0.14 c0.07,-1.6500000000000001 0.29000000000000004,-18.17 0.37000000000000005,-25.58 l0,-0.23 c0.08000000000000002,-7 0.18000000000000002,-16.58 -9.9,-26.45 c-9.97,-9.76 -25.96,-11.7 -38.01,-4.61 c-12.69,7.46 -15.28,19.29 -15.81,24.03 c-0.29000000000000004,2.62 -1.28,16.18 7.83,25.54 c7.640000000000001,7.85 14.36,9.23 18.81,10.14 l0.5800000000000001,0.12000000000000001 c2.07,0.43000000000000005 2.8200000000000003,0.13 3.09,-0.09000000000000002 c0.43000000000000005,-0.35000000000000003 0.49000000000000005,-1.25 0.49000000000000005,-2.18 v-21.96 c-3.74,-0.52 -6.640000000000001,-3.74 -6.640000000000001,-7.62 c0,-4.25 3.45,-7.7 7.7,-7.7 s7.7,3.45 7.7,7.7 c0,0.11000000000000001 -0.010000000000000002,0.23 -0.010000000000000002,0.3400000000000001 h0.04000000000000001 l-0.07,28.83 c0,0.98 0.17,1.6600000000000001 0.51,1.99 c0.43000000000000005,0.42000000000000004 1.3,0.41000000000000003 2.22,0.4 l0.41000000000000003,0 l7.19,0.030000000000000006 l11.26,0.04000000000000001 C158.7434228515625,117.42648498535158 158.86342285156252,116.66648498535159 158.9434228515625,114.81648498535156 z" id="svg_5"/>
		<path class="st2" d="M107.4734228515625,113.12648498535157 v-1.6600000000000001 c-0.8800000000000001,-0.77 -1.7600000000000002,-1.6 -2.67,-2.52 c-7.6,-7.8100000000000005 -9.35,-19.25 -8.45,-27.35 c0.29000000000000004,-2.58 1.48,-9.23 6.11,-15.82 c-7.6,-9.66 -16.57,-13.97 -26.68,-12.78 c-7.74,0.91 -13.31,4.87 -13.36,4.91 c-0.37000000000000005,0.27 -0.8700000000000001,0.28 -1.26,0.04000000000000001 c-17.55,-11.17 -31.91,0.46 -32.52,0.9600000000000001 c-0.020000000000000004,0.010000000000000002 -0.04000000000000001,0.030000000000000006 -0.06000000000000001,0.04000000000000001 c-11.02,8.04 -11.94,16.53 -11.94,25.24 v32.12 c0,1.54 0.05000000000000001,1.54 1.37,1.56 l0.45,0.010000000000000002 c1.25,0.04000000000000001 18.3,0.19000000000000003 21.22,0.19000000000000003 c1.18,0 1.4,-0.22000000000000003 1.4100000000000001,-0.22000000000000003 c0.1,-0.1 0.07,-0.81 0.06000000000000001,-1.19 l-0.010000000000000002,-0.7200000000000001 c0,-1.03 0.12000000000000001,-8.73 0.23,-16.17 c0.11000000000000001,-7.12 0.22000000000000003,-14.49 0.22000000000000003,-15.42 c0,-4.08 2.19,-4.93 4.03,-4.93 c4.09,0 4.09,3.77 4.09,5.38 v31.31 c0,2.07 0.08000000000000002,2.07 2.07,2.07 h19.72 c1.21,0 2.02,-0.2 2.41,-0.5900000000000001 c0.5,-0.5 0.5,-1.61 0.5,-2.9 v-30.01 c0,-1.6800000000000002 0,-5.6 4.03,-5.6 c4.15,0 4.15,4.3 4.15,5.71 v30.81 c0,1.01 0.17,1.7400000000000002 0.49000000000000005,2.05 c0.3400000000000001,0.33000000000000007 1.01,0.32000000000000006 1.71,0.31000000000000005 l0.37000000000000005,0 h20.5 c0.7000000000000001,0 1.19,-0.14 1.45,-0.42000000000000004 c0.53,-0.56 0.45,-1.92 0.39000000000000007,-3.12 L107.4734228515625,113.12648498535157 z" id="svg_6"/>
		<path class="st3" d="M169.97342285156247,85.13648498535156 c0.33000000000000007,0.42000000000000004 0.31000000000000005,1.02 -0.04000000000000001,1.42 c-7.61,8.76 -6.87,21.96 -6.59,26.92 l0.07,1.62 c0,2.16 0.31000000000000005,2.16 1.79,2.16 l21.14,0.15000000000000002 c0.7500000000000001,0 0.99,-0.16000000000000003 1.06,-0.23 c0.21000000000000002,-0.21000000000000002 0.21000000000000002,-0.8600000000000001 0.21000000000000002,-1.44 v-10.28 c0,-3.22 1.51,-4.86 4.48,-4.86 c2.59,0 4.41,1.81 4.41,4.41 l0.030000000000000006,4.29 l0.04000000000000001,6.46 c0,1.57 0.030000000000000006,1.57 1.42,1.57 h21.14 c1.45,0 1.6400000000000001,-0.41000000000000003 1.6400000000000001,-2.02 l0.020000000000000004,-1.18 c0.04000000000000001,-1.46 0.09000000000000002,-3.92 -0.020000000000000004,-10.9 c-0.14,-8.7 -6.28,-16.81 -6.34,-16.89 c-0.33000000000000007,-0.43000000000000005 -0.30000000000000004,-1.05 0.07,-1.45 c7.41,-7.93 6.6,-22.56 6.33,-27.37 l-0.06000000000000001,-1.2 c-0.04000000000000001,-1.83 -0.6700000000000002,-2.12 -2.67,-2.12 h-20.24 c-0.97,0 -1.21,0.2 -1.26,0.24000000000000002 c-0.15000000000000002,0.15000000000000002 -0.15000000000000002,0.7600000000000001 -0.14,1.26 l0,0.29000000000000004 v10.05 c0,4.54 -2.03,4.890000000000001 -4.890000000000001,4.890000000000001 c-2.4,0 -3.88,-1.86 -3.88,-4.85 v-10.23 c0,-1.42 -0.29000000000000004,-1.57 -1.5,-1.57 h-0.010000000000000002 c-0.18000000000000002,0 -17.73,-0.22000000000000003 -20.53,-0.22000000000000003 c-1.79,0 -1.94,0.78 -1.94,1.6400000000000001 l-0.030000000000000006,0.91 c-0.06000000000000001,1.29 -0.18000000000000002,3.96 -0.12000000000000001,11.25 C163.6334228515625,76.87648498535157 169.91342285156247,85.05648498535157 169.97342285156247,85.13648498535156 z" id="svg_7"/>
	</g>
	<g id="svg_8">
		<path class="st4" d="M292.7734228515625,106.84648498535154 c0,0 -18.38,-7.84 -22.39,-23.61 c-4,-15.77 -3.37,-32.19 -3.37,-32.19 s-0.8400000000000001,-2.06 -2.11,-3.21 c-2.47,-2.24 -12.07,-11.56 -3.51,-22.23 c8.56,-10.67 18.94,-3.04 18.94,-3.04 s1.31,-0.08000000000000002 2.89,-0.8900000000000001 c3.79,-1.94 12.78,-11.23 43.99,-9.79 c0,0 17.78,-0.79 34.98,11.45 c0,0 13.73,-5.47 20.59,4.18 c6.86,9.64 0.98,18.91 -6.68,23.43 l-0.27,5.23 c0,0 2.39,44.1 -27.08,51.41 C348.7434228515625,107.58648498535155 322.8934228515625,120.38648498535156 292.7734228515625,106.84648498535154 z" id="svg_9"/>
		<path class="st5" d="M288.7934228515625,84.12648498535157 c0,0 -2.08,-17.06 20.7,-21.88 c22.79,-4.82 43.75,6.01 41.84,22.7 c0,0 -3.62,23.45 -32.37,24.68 C318.9634228515625,109.64648498535155 294.7734228515625,109.78648498535154 288.7934228515625,84.12648498535157 z" id="svg_10"/>
		<path d="M298.4734228515625,78.01648498535155 c0,0 -1.25,-1.4 -1.71,-1.49 c-0.46,-0.08000000000000002 -0.16000000000000003,-2.08 0.8800000000000001,-1.3 c1.05,0.78 1.7000000000000002,3.95 9.78,4.44 c0,0 17.54,2 25.11,0.33000000000000007 c0,0 8.17,-0.6600000000000001 10.22,-3.87 c0,0 1.79,-0.36000000000000004 0.3400000000000001,1.1600000000000001 c0,0 -10.94,13.95 -15.79,19.74 c0,0 -5.09,5.94 -14.18,0.35000000000000003 C313.1134228515625,97.39648498535155 303.9534228515625,85.79648498535158 298.4734228515625,78.01648498535155 z" id="svg_11"/>
		<path class="st6" d="M319.8234228515625,92.41648498535159 c0,0 3.33,-2.31 4.91,0.07 c0,0 1.1600000000000001,7.28 -3.1,7.24 c0,0 -6.17,0.46 -6.45,-1.32 S312.2634228515625,88.65648498535154 319.8234228515625,92.41648498535159 z" id="svg_12"/>
		<g id="svg_13">
			<path class="st7" d="M269.6934228515625,39.68648498535157 l5.16,-9.89 c0,0 -5.71,-3.16 -8.86,1.83 C265.9934228515625,31.626484985351567 263.5734228515625,36.526484985351544 269.6934228515625,39.68648498535157 z" id="svg_14"/>
			<path class="st7" d="M371.4634228515625,41.036484985351535 l-4.9,-10.03 c0,0 5.79,-3 8.81,2.07 C375.3634228515625,33.076484985351556 377.6634228515625,38.036484985351535 371.4634228515625,41.036484985351535 z" id="svg_15"/>
		</g>
		<g id="svg_16">
			<path class="st8" d="M281.0434228515625,35.72648498535159 c0,0 0.92,0.53 1.34,-0.5 c0.42000000000000004,-1.02 4.3100000000000005,-7.5600000000000005 13.13,-6.1 c0,0 2.39,-1.81 -2.95,-1.98 C287.2134228515625,26.97648498535156 282.3434228515625,30.816484985351565 281.0434228515625,35.72648498535159 z" id="svg_17"/>
			<path class="st8" d="M359.0734228515625,35.29648498535158 c0,0 -0.93,0.5 -1.33,-0.53 c-0.4,-1.03 -4.11,-7.67 -12.96,-6.45 c0,0 -2.34,-1.87 3,-1.9 C353.1334228515625,26.376484985351567 357.9134228515625,30.346484985351566 359.0734228515625,35.29648498535158 z" id="svg_18"/>
		</g>
		<g id="svg_19">
			<ellipse transform="matrix(0.0133,-0.9999,0.9999,0.0133,150.0972,716.0737) " cx="657.5221497346324" cy="161.4398512857478" rx="5.800000190734863" ry="11.40999984741211" id="svg_20"/>
			
				<ellipse transform="matrix(0.0133,-0.9999,0.9999,0.0133,146.4292,709.6101) " class="st5" cx="652.4121643830699" cy="160.0598464029353" rx="1.4199999570846558" ry="3.390000104904175" id="svg_21"/>
		</g>
		<g id="svg_22">
			<path class="st5" d="M293.1334228515625,59.75648498535156 c0,0 -4.640000000000001,-10.29 3.38,-11.04 c0,0 3.71,-0.7200000000000001 4.87,4.46 c0,0 0.14,6.63 -3.4,6.58 L293.1334228515625,59.75648498535156 z" id="svg_23"/>
			<g id="svg_24">
				<path d="M295.6234228515625,59.48648498535158 c0,0 -2.63,-1.42 -1.7200000000000002,-6.18 c0.91,-4.76 6.58,-2.3 7.45,1.7200000000000002 c0,0 -0.29000000000000004,4.3100000000000005 -2.6500000000000004,4.74 C298.7134228515625,59.76648498535155 296.1934228515625,59.95648498535155 295.6234228515625,59.48648498535158 z" id="svg_25"/>
				
					<ellipse transform="matrix(0.0133,-0.9999,0.9999,0.0133,134.091,689.4755) " class="st5" cx="636.0421692658825" cy="156.24984884434156" rx="0.8999999761581421" ry="0.6499999761581421" id="svg_26"/>
				<circle class="st5" cx="296.3834228515625" cy="53.81648254394531" r="1.940000057220459" id="svg_27"/>
			</g>
		</g>
		<g id="svg_28">
			<path class="st5" d="M348.9234228515625,59.786484985351535 c0,0 3.67,-9.51 -4.33,-10.46 c0,0 -3.98,-0.9600000000000001 -4.99,4.32 c0,0 -0.32000000000000006,6.62 3.22,6.67 L348.9234228515625,59.786484985351535 z" id="svg_29"/>
			<g id="svg_30">
				<path d="M342.0334228515625,60.33648498535155 c0,0 -3.7600000000000002,-6.75 0.9600000000000001,-8.620000000000001 c0,0 4.640000000000001,-1.6900000000000002 4.95,4.2 c0,0 -0.48000000000000004,4.5 -2.99,4.43 L342.0334228515625,60.33648498535155 z" id="svg_31"/>
				
					<ellipse transform="matrix(0.0133,-0.9999,0.9999,0.0133,179.329,732.907) " class="st5" cx="680.6721741486949" cy="155.03985738926343" rx="2.0399999618530273" ry="1.649999976158142" id="svg_32"/>
				<circle class="st5" cx="345.45343017578125" cy="56.27647399902344" r="0.7900000214576721" id="svg_33"/>
			</g>
		</g>
		<g id="svg_34">
			<path class="st9" d="M290.8234228515625,139.73648498535158 c0,0 2.81,2.46 6.14,0.04000000000000001 l15.11,-8.64 c0,0 -2.01,-8.53 0.9600000000000001,-15.69 c0,0 -15.06,-22.06 -26.17,-10.95 C286.8734228515625,104.50648498535156 277.5934228515625,123.89648498535155 290.8234228515625,139.73648498535158 z" id="svg_35"/>
			<path class="st9" d="M348.8834228515625,139.73648498535158 c0,0 -2.81,2.46 -6.14,0.04000000000000001 l-15.11,-8.64 c0,0 2.01,-8.53 -0.9600000000000001,-15.69 c0,0 15.06,-22.06 26.17,-10.95 C352.8334228515625,104.50648498535156 362.1134228515625,123.89648498535155 348.8834228515625,139.73648498535158 z" id="svg_36"/>
			<path class="st9" d="M323.0434228515625,111.25648498535156 c-1.1600000000000001,0 -2.25,0.55 -3.19,1.5 c-0.9400000000000001,-0.9500000000000001 -2.03,-1.5 -3.19,-1.5 c-3.5300000000000002,0 -6.39,4.96 -6.39,11.09 s2.8600000000000003,11.09 6.39,11.09 c1.1600000000000001,0 2.25,-0.55 3.19,-1.5 c0.9400000000000001,0.9500000000000001 2.03,1.5 3.19,1.5 c3.5300000000000002,0 6.39,-4.96 6.39,-11.09 S326.5734228515625,111.25648498535156 323.0434228515625,111.25648498535156 z" id="svg_37"/>
		</g>
	</g>
	<g id="svg_38">
		<path class="st10" d="M545.0234228515625,109.84648498535154 v0.05000000000000001 l0.010000000000000002,0.6200000000000001 c0.010000000000000002,0.31000000000000005 -0.020000000000000004,0.6000000000000001 -0.020000000000000004,0.9 c-0.010000000000000002,0.5700000000000001 -0.020000000000000004,1.1400000000000001 -0.04000000000000001,1.71 c-0.020000000000000004,0.44000000000000006 -0.030000000000000006,0.8800000000000001 -0.06000000000000001,1.31 c-0.010000000000000002,0.2 -0.020000000000000004,0.39000000000000007 -0.030000000000000006,0.5900000000000001 c11.17,1.33 20.14,-0.7600000000000001 26.66,-6.29 c8.88,-7.52 9.870000000000001,-18.42 9.96,-21.59 l0.030000000000000006,-1.8 c0.05000000000000001,-3.26 0.08000000000000002,-5.84 1.73,-7.38 c0.9600000000000001,-0.9 2.34,-1.28 4.2,-1.17 c0.97,0.05000000000000001 1.6,-0.06000000000000001 1.8900000000000001,-0.33000000000000007 c0.44000000000000006,-0.41000000000000003 0.51,-1.58 0.51,-3.01 c0,-0.2 0,-0.41000000000000003 0,-0.6300000000000001 l-0.010000000000000002,-11.09 l0.010000000000000002,-6.98 c0,-1.77 -0.24000000000000002,-2.8200000000000003 -0.7400000000000001,-3.31 c-0.8,-0.77 -2.8600000000000003,-0.7000000000000001 -5.99,-0.5900000000000001 l-3.04,0.09000000000000002 c-16.94,0.31000000000000005 -25.67,10.44 -25.94,30.12 c-0.11000000000000001,8.4 -5.72,10.73 -9.04,11.38 C545.1134228515625,100.96648498535154 545.0834228515625,108.06648498535156 545.0234228515625,109.84648498535154 z" id="svg_39"/>
		<path class="st11" d="M401.0334228515625,106.27648498535154 c7.96,11.76 24.19,10.73 29.53,10.39 l1.17,-0.06000000000000001 c1.58,-0.05000000000000001 1.58,-0.21000000000000002 1.57,-1.71 l-0.010000000000000002,-3.42 c-0.020000000000000004,-4.36 -0.06000000000000001,-11.66 -0.030000000000000006,-15.12 c0.010000000000000002,-1.11 -0.19000000000000003,-1.9 -0.5700000000000001,-2.29 c-0.3400000000000001,-0.3400000000000001 -0.8500000000000001,-0.36000000000000004 -1.44,-0.35000000000000003 l-0.8500000000000001,0.010000000000000002 l-5.77,-0.010000000000000002 c-4.8100000000000005,-0.030000000000000006 -6.53,-3.49 -6.53,-6.72 c0,0 -0.030000000000000006,-5.12 -0.030000000000000006,-5.13 c0,-1.17 0.32000000000000006,-2.09 0.9400000000000001,-2.71 c0.8800000000000001,-0.8800000000000001 2.05,-0.8800000000000001 2.6500000000000004,-0.8700000000000001 h4.57 c0.48000000000000004,0 0.8400000000000001,-0.09000000000000002 0.99,-0.24000000000000002 c0.2,-0.2 0.23,-0.6900000000000002 0.23,-1.15 c0,-0.08000000000000002 0,-0.51 0,-0.51 v-21.44 c0,-0.42000000000000004 -0.05000000000000001,-0.6200000000000001 -0.08000000000000002,-0.6900000000000002 c-0.11000000000000001,-0.020000000000000004 -0.31000000000000005,-0.020000000000000004 -0.46,-0.020000000000000004 l-0.23,0 c-0.010000000000000002,0 -5.19,-0.05000000000000001 -5.19,-0.05000000000000001 c-1.03,0 -1.84,-0.30000000000000004 -2.43,-0.8900000000000001 c-0.97,-0.98 -0.9500000000000001,-2.39 -0.93,-3.3200000000000003 l0,-0.26 v-12.38 c0,-0.6200000000000001 -0.11000000000000001,-1.07 -0.32000000000000006,-1.28 c-0.30000000000000004,-0.29000000000000004 -1.02,-0.29000000000000004 -1.6500000000000001,-0.29000000000000004 h-0.16000000000000003 l-21.06,-0.06000000000000001 c-1.19,0 -1.23,0 -1.23,2.18 c0,0 0,43.31 0,43.38 c0,0 0,0.020000000000000004 0,0.04000000000000001 C393.6934228515625,81.30648498535157 394.1134228515625,99.36648498535158 401.0334228515625,106.27648498535154 z" id="svg_40"/>
		<path class="st12" d="M464.32342285156255,116.44648498535156 c11.44,0 22.12,-6.08 28.01,-15.89 c-1.15,-3.14 -1.6800000000000002,-6.33 -1.9,-9.07 c0,-0.020000000000000004 0,-0.030000000000000006 0,-0.05000000000000001 c-0.09000000000000002,-1.2 -0.13,-2.3200000000000003 -0.13,-3.3 v-24.13 c-6.24,-8.19 -15.68,-12.88 -25.97,-12.88 c-18.01,0 -32.66,14.65 -32.66,32.66 C431.6634228515625,101.79648498535158 446.31342285156245,116.44648498535156 464.32342285156255,116.44648498535156 zM471.97342285156253,83.74648498535157 c0,4.17 -3.39,7.5600000000000005 -7.5600000000000005,7.5600000000000005 c-4.17,0 -7.5600000000000005,-3.39 -7.5600000000000005,-7.5600000000000005 c0,-4.17 3.39,-7.5600000000000005 7.5600000000000005,-7.5600000000000005 C468.57342285156255,76.18648498535157 471.97342285156253,79.57648498535156 471.97342285156253,83.74648498535157 z" id="svg_41"/>
		<path class="st0" d="M489.55342285156246,88.14648498535155 c0,1.09 0.05000000000000001,2.16 0.13,3.21 c0,0.04000000000000001 0,0.07 0.010000000000000002,0.11000000000000001 c0.27,3.21 0.92,6.2 1.94,8.8 c0,0.010000000000000002 0,0.010000000000000002 0,0.020000000000000004 c1.27,3.24 3.27,6.35 6.41,8.61 c6.88,4.93 17.05,2.51 18.19,2.21 l0.7100000000000001,-0.19000000000000003 c1.83,-0.49000000000000005 3.5700000000000003,-0.9500000000000001 4.88,-0.16000000000000003 c0.6700000000000002,0.41000000000000003 1.12,1.09 1.32,2.01 c0.26,1.2 -0.12000000000000001,2.49 -1.07,3.6500000000000004 c-1.75,2.12 -5.98,4.3100000000000005 -12.6,4.14 c-6.1,-0.16000000000000003 -9.98,-2.22 -12.82,-3.73 l-1.19,-0.6200000000000001 c-0.44000000000000006,-0.21000000000000002 -0.6900000000000002,-0.29000000000000004 -0.8300000000000001,-0.31000000000000005 c-0.06000000000000001,0.23 -0.07,0.6500000000000001 -0.07,1.02 c0,0.14 0,0.26 0,0.37000000000000005 l0,0.43000000000000005 l-0.010000000000000002,2.31 c-0.010000000000000002,2.27 -0.020000000000000004,5.67 -0.020000000000000004,8.83 c0,2.36 0.010000000000000002,4.58 0.030000000000000006,6.09 c0.05000000000000001,3.29 2.3200000000000003,4.74 8.07,5.17 c16.2,1.23 28.07,-1.6 35.29,-8.41 c4.65,-4.38 7.24,-10.32 7.75,-17.68 c0.010000000000000002,-0.14 0.020000000000000004,-0.29000000000000004 0.030000000000000006,-0.43000000000000005 c0.05000000000000001,-0.79 0.06000000000000001,-1.6 0.05000000000000001,-2.43 c0,-0.39000000000000007 0.010000000000000002,-0.7600000000000001 0.010000000000000002,-1.1600000000000001 l0.010000000000000002,-18.51 c0,-0.14 0.030000000000000006,-0.28 0.08000000000000002,-0.41000000000000003 c0,-14.61 -0.05000000000000001,-32.66 -0.09000000000000002,-35.11 c-0.04000000000000001,-2.88 -0.45,-2.88 -3.14,-2.87 h-18.21 c-0.8700000000000001,0 -1.47,0.17 -1.8,0.5 c-0.45,0.45 -0.45,1.32 -0.44000000000000006,2.01 v25.84 c0,4.26 -0.78,6.9 -4.69,6.9 c-4.21,0 -4.21,-4.85 -4.21,-6.45 v-27.5 c0,-0.56 -0.13,-0.7300000000000001 -0.17,-0.77 c-0.21000000000000002,-0.2 -1.01,-0.18000000000000002 -1.59,-0.17 l-0.5900000000000001,0.010000000000000002 h-18.6 c-2.43,0 -2.7600000000000002,0.49000000000000005 -2.7600000000000002,4.03 V88.14648498535155 z" id="svg_42"/>
	</g>
	<g id="svg_43">
		<path class="st13" d="M318.4734228515625,153.06648498535156 h9.19 c4.42,0 5.36,2.49 5.36,4.21 c0,1.6900000000000002 -0.8200000000000001,2.6100000000000003 -2.07,3.29 c1.5,0.52 2.91,1.7200000000000002 2.91,4.18 c0,3.36 -2.91,5.1 -5.87,5.1 h-9.52 V153.06648498535156 zM323.6434228515625,159.59648498535154 h2.73 c1.08,0 1.7600000000000002,-0.31000000000000005 1.7600000000000002,-1.3900000000000001 c0,-0.8500000000000001 -0.7100000000000001,-1.15 -1.7600000000000002,-1.15 h-2.73 V159.59648498535154 zM323.6434228515625,165.84648498535154 h3.03 c1.08,0 2.02,-0.30000000000000004 2.02,-1.6 c0,-0.99 -0.5900000000000001,-1.53 -1.81,-1.53 h-3.24 V165.84648498535154 z" id="svg_44"/>
		<path class="st13" d="M340.5634228515625,156.33648498535155 h-4.65 v-3.27 h4.65 V156.33648498535155 zM335.9134228515625,157.64648498535155 h4.65 v12.2 h-4.65 V157.64648498535155 z" id="svg_45"/>
		<path class="st13" d="M347.1434228515625,164.79648498535158 c0.12000000000000001,1.3900000000000001 0.92,2.37 2.37,2.37 c0.7500000000000001,0 1.57,-0.28 1.9500000000000002,-0.8700000000000001 h4.35 c-0.9400000000000001,2.63 -3.5,3.85 -6.27,3.85 c-3.9,0 -6.84,-2.3 -6.84,-6.37 c0,-3.55 2.58,-6.44 6.44,-6.44 c4.84,0 6.93,2.7 6.93,7.45 H347.1434228515625 zM351.6034228515625,162.37648498535157 c0,-1.13 -0.8500000000000001,-2.04 -2.04,-2.04 c-1.3900000000000001,0 -2.19,0.7300000000000001 -2.4,2.04 H351.6034228515625 z" id="svg_46"/>
		<path class="st13" d="M358.0134228515625,157.64648498535155 h4.49 v1.55 h0.05000000000000001 c0.8700000000000001,-1.22 2.12,-1.86 3.9699999999999998,-1.86 c2.19,0 4.18,1.34 4.18,4.14 v8.37 h-4.65 v-6.39 c0,-1.4100000000000001 -0.17,-2.4 -1.53,-2.4 c-0.8,0 -1.86,0.4 -1.86,2.35 v6.44 h-4.65 V157.64648498535155 z" id="svg_47"/>
		<path class="st13" d="M381.0834228515625,157.64648498535155 h4.49 v1.34 h0.05000000000000001 c0.5900000000000001,-0.78 1.29,-1.6400000000000001 3.5700000000000003,-1.6400000000000001 c3.45,0 5.12,3.41 5.12,6.46 c0,2.87 -1.1,6.34 -5.19,6.34 c-1.3900000000000001,0 -2.63,-0.6100000000000001 -3.34,-1.6500000000000001 h-0.05000000000000001 v5.29 h-4.65 V157.64648498535155 zM387.6234228515625,166.76648498535155 c1.6700000000000002,0 2.04,-1.57 2.04,-3.01 c0,-1.46 -0.38000000000000006,-3.03 -2.04,-3.03 c-1.6700000000000002,0 -2.04,1.57 -2.04,3.03 C385.5734228515625,165.19648498535156 385.9534228515625,166.76648498535155 387.6234228515625,166.76648498535155 z" id="svg_48"/>
		<path class="st13" d="M396.4034228515625,153.06648498535156 h4.65 v16.78 h-4.65 V153.06648498535156 z" id="svg_49"/>
		<path class="st13" d="M416.4034228515625,169.84648498535154 h-4.49 v-1.55 h-0.05000000000000001 c-0.8700000000000001,1.22 -2.12,1.86 -3.9699999999999998,1.86 c-2.18,0 -4.18,-1.34 -4.18,-4.14 v-8.37 h4.65 v6.39 c0,1.4100000000000001 0.16000000000000003,2.4 1.53,2.4 c0.8,0 1.86,-0.4 1.86,-2.35 v-6.44 h4.65 V169.84648498535154 z" id="svg_50"/>
		<path class="st13" d="M425.9834228515625,161.19648498535156 c-0.020000000000000004,-0.4 -0.24000000000000002,-0.7100000000000001 -0.54,-0.92 c-0.28,-0.24000000000000002 -0.6600000000000001,-0.35000000000000003 -1.03,-0.35000000000000003 c-0.6600000000000001,0 -1.4100000000000001,0.14 -1.4100000000000001,0.9400000000000001 c0,0.35000000000000003 0.28,0.52 0.54,0.6300000000000001 c0.78,0.33000000000000007 2.54,0.42000000000000004 4.09,0.9400000000000001 c1.55,0.49000000000000005 2.91,1.4100000000000001 2.91,3.41 c0,3.38 -3.24,4.3 -6.2,4.3 c-2.87,0 -6.02,-1.15 -6.09,-4.3 h4.44 c0.020000000000000004,0.42000000000000004 0.21000000000000002,0.78 0.56,1.08 c0.23,0.21000000000000002 0.6800000000000002,0.35000000000000003 1.25,0.35000000000000003 c0.6100000000000001,0 1.57,-0.23 1.57,-0.9400000000000001 s-0.4,-0.92 -2.56,-1.29 c-3.55,-0.6100000000000001 -4.98,-1.7400000000000002 -4.98,-3.83 c0,-3.08 3.31,-3.88 5.76,-3.88 c2.63,0 5.8,0.7300000000000001 5.92,3.85 H425.9834228515625 z" id="svg_51"/>
		<path class="st13" d="M450.04342285156247,174.49648498535157 h-2 v-6.3 h-0.05000000000000001 c-0.6600000000000001,1.34 -2.21,1.9300000000000002 -3.88,1.9300000000000002 c-3.74,0 -5.59,-2.96 -5.59,-6.39 s1.83,-6.32 5.55,-6.32 c1.25,0 3.03,0.47000000000000003 3.92,1.9 h0.05000000000000001 v-1.62 h2 V174.49648498535157 zM444.4034228515625,168.36648498535158 c2.68,0 3.71,-2.3 3.71,-4.58 c0,-2.4 -1.08,-4.61 -3.83,-4.61 c-2.73,0 -3.64,2.33 -3.64,4.7 C440.6434228515625,166.15648498535154 441.81342285156245,168.36648498535158 444.4034228515625,168.36648498535158 z" id="svg_52"/>
		<path class="st13" d="M463.17342285156246,169.84648498535154 h-1.8800000000000001 v-1.9300000000000002 h-0.05000000000000001 c-0.8500000000000001,1.5 -2.21,2.21 -3.95,2.21 c-3.2,0 -4.18,-1.83 -4.18,-4.44 v-7.99 h2 v8.22 c0,1.48 0.9400000000000001,2.44 2.47,2.44 c2.42,0 3.59,-1.62 3.59,-3.81 v-6.86 h2 V169.84648498535154 z" id="svg_53"/>
		<path class="st13" d="M476.54342285156247,165.98648498535158 c-0.54,2.68 -2.47,4.14 -5.19,4.14 c-3.88,0 -5.71,-2.68 -5.83,-6.39 c0,-3.64 2.4,-6.32 5.71,-6.32 c4.3,0 5.62,4.02 5.5,6.96 h-9.09 c-0.07,2.12 1.13,4 3.7800000000000002,4 c1.6400000000000001,0 2.8,-0.8 3.15,-2.37 H476.54342285156247 zM474.6134228515625,162.60648498535159 c-0.09000000000000002,-1.9 -1.53,-3.43 -3.5,-3.43 c-2.09,0 -3.34,1.57 -3.48,3.43 H474.6134228515625 z" id="svg_54"/>
		<path class="st13" d="M496.18342285156245,169.84648498535154 h-2 v-1.6400000000000001 h-0.05000000000000001 c-0.6600000000000001,1.34 -2.21,1.9300000000000002 -3.88,1.9300000000000002 c-3.74,0 -5.59,-2.96 -5.59,-6.39 s1.83,-6.32 5.55,-6.32 c1.25,0 3.03,0.47000000000000003 3.92,1.9 h0.05000000000000001 v-6.25 h2 V169.84648498535154 zM490.54342285156247,168.36648498535158 c2.68,0 3.71,-2.3 3.71,-4.58 c0,-2.4 -1.08,-4.61 -3.83,-4.61 c-2.73,0 -3.64,2.33 -3.64,4.7 C486.7834228515625,166.15648498535154 487.96342285156254,168.36648498535158 490.54342285156247,168.36648498535158 z" id="svg_55"/>
		<path class="st13" d="M509.31342285156245,169.84648498535154 h-1.8800000000000001 v-1.9300000000000002 h-0.05000000000000001 c-0.8500000000000001,1.5 -2.21,2.21 -3.95,2.21 c-3.2,0 -4.18,-1.83 -4.18,-4.44 v-7.99 h2 v8.22 c0,1.48 0.9400000000000001,2.44 2.47,2.44 c2.42,0 3.59,-1.62 3.59,-3.81 v-6.86 h2 V169.84648498535154 z" id="svg_56"/>
		<path class="st13" d="M516.6434228515625,170.07648498535156 h0.78 c0.9400000000000001,0 1.29,-0.33000000000000007 1.29,-1.5 v-10.93 h4.65 v11.37 c0,1.9500000000000002 -0.12000000000000001,3.12 -1.08,3.95 c-0.8700000000000001,0.7500000000000001 -2.35,0.8 -3.45,0.8200000000000001 h-2.19 V170.07648498535156 zM523.3634228515625,156.33648498535155 h-4.65 v-3.27 h4.65 V156.33648498535155 z" id="svg_57"/>
		<path class="st13" d="M532.1534228515625,170.14648498535155 c-4.58,0 -6.65,-3.03 -6.65,-6.42 s2.07,-6.39 6.65,-6.39 s6.65,3.01 6.65,6.39 S536.7334228515625,170.14648498535155 532.1534228515625,170.14648498535155 zM532.1534228515625,160.7264849853516 c-1.7600000000000002,0 -2,1.71 -2,3.01 c0,1.29 0.24000000000000002,3.03 2,3.03 c1.7600000000000002,0 2,-1.7400000000000002 2,-3.03 C534.1434228515625,162.44648498535156 533.9134228515625,160.7264849853516 532.1534228515625,160.7264849853516 z" id="svg_58"/>
		<path class="st13" d="M553.5034228515625,169.84648498535154 h-4.49 v-1.55 h-0.05000000000000001 c-0.8700000000000001,1.22 -2.12,1.86 -3.9699999999999998,1.86 c-2.18,0 -4.18,-1.34 -4.18,-4.14 v-8.37 h4.65 v6.39 c0,1.4100000000000001 0.16000000000000003,2.4 1.53,2.4 c0.8,0 1.86,-0.4 1.86,-2.35 v-6.44 h4.65 V169.84648498535154 z" id="svg_59"/>
		<path class="st13" d="M559.9634228515625,164.79648498535158 c0.12000000000000001,1.3900000000000001 0.92,2.37 2.37,2.37 c0.7500000000000001,0 1.57,-0.28 1.9500000000000002,-0.8700000000000001 h4.35 c-0.9400000000000001,2.63 -3.5,3.85 -6.27,3.85 c-3.9,0 -6.84,-2.3 -6.84,-6.37 c0,-3.55 2.58,-6.44 6.44,-6.44 c4.84,0 6.93,2.7 6.93,7.45 H559.9634228515625 zM564.4334228515625,162.37648498535157 c0,-1.13 -0.8500000000000001,-2.04 -2.04,-2.04 c-1.3900000000000001,0 -2.19,0.7300000000000001 -2.4,2.04 H564.4334228515625 z" id="svg_60"/>
		<path class="st13" d="M576.4334228515625,157.64648498535155 h2.49 v2.87 h-2.49 v4.25 c0,1.13 0.26,1.62 1.4300000000000002,1.62 c0.35000000000000003,0 0.7100000000000001,-0.020000000000000004 1.06,-0.07 v3.52 c-0.9400000000000001,0 -2,0.14 -2.98,0.14 c-1.97,0 -4.16,-0.30000000000000004 -4.16,-3.64 v-5.83 h-2.07 v-2.87 h2.07 v-3.71 h4.65 V157.64648498535155 z" id="svg_61"/>
		<path class="st13" d="M593.1134228515625,157.01648498535155 l-1.29,6.79 h-2.2800000000000002 l-1.32,-6.79 v-3.95 h4.890000000000001 V157.01648498535155 zM588.2234228515625,165.19648498535156 h4.890000000000001 v4.65 h-4.890000000000001 V165.19648498535156 z" id="svg_62"/>
	</g>
</g></g></svg>